<?xml version="1.0" encoding="UTF-8"?>
<svg width="125px" height="25px" viewBox="0 0 125 25" version="1.1" xmlns="http://www.w3.org/2000/svg" xmlns:xlink="http://www.w3.org/1999/xlink">
    <!-- Generator: Sketch 52.5 (67469) - http://www.bohemiancoding.com/sketch -->
    <title>atom/logo/Shaya-White</title>
    <desc>Created with Sketch.</desc>
    <g id="Homepage" stroke="none" stroke-width="1" fill="none" fill-rule="evenodd">
        <g transform="translate(-32.000000, -23.000000)" id="Group-12">
            <g transform="translate(32.000000, 15.000000)">
                <g id="atom/logo/Shaya-White" transform="translate(0.000000, 8.000000)">
                    <g id="Logo">
                        <g id="Group-34">
                            <rect id="Rectangle" fill-opacity="0" fill="#D8D8D8" x="0" y="0" width="125" height="25"></rect>
                            <g id="Group-33" fill="#FFFFFF">
                                <polygon id="Path" points="24.4440184 -1.95399252e-14 24.4440184 25 28.6970896 25 28.6970896 17.7655527 38.9088767 17.7655527 38.9088767 24.9993823 43.1365031 24.9993823 43.1365031 0.0080295818 38.8968903 0.0080295818 38.8968903 13.9208242 28.6787946 13.9208242 28.6787946 -1.95399252e-14"></polygon>
                                <path d="M117.18732,17.4574917 C115.808464,14.3632897 114.448546,11.3107021 113.065784,8.20754004 C111.670136,11.3154808 110.298113,14.3712541 108.912227,17.4574917 L117.18732,17.4574917 Z M101.340035,24.8594839 C105.267297,16.5901594 109.185578,8.34034781 113.129045,0.0375724528 C117.076223,8.32621085 121.004852,16.5752259 124.948125,24.8557008 C124.847961,24.8638644 124.773766,24.8750146 124.699766,24.8752137 C123.37187,24.8762093 122.043973,24.8716297 120.716077,24.8807889 C120.534104,24.8821827 120.448389,24.8244402 120.375561,24.6573851 C119.880406,23.5232426 119.370998,22.3956708 118.875844,21.2613292 C118.798134,21.0831238 118.698752,21.0241867 118.509359,21.0245849 C114.859938,21.0299609 111.210712,21.0305582 107.561096,21.0233902 C107.352764,21.022992 107.261582,21.1026368 107.182311,21.2842271 C106.68618,22.4179713 106.178334,23.5465387 105.678299,24.678491 C105.622847,24.8039316 105.570911,24.8817844 105.408463,24.8805898 C104.098725,24.8720279 102.788791,24.8758111 101.479053,24.8752137 C101.445079,24.8752137 101.411106,24.8676475 101.340035,24.8594839 Z" id="Fill-2"></path>
                                <path d="M66.2792178,17.522538 C64.8999705,14.4271413 63.540834,11.376744 62.1553387,8.2678077 C60.7575427,11.3811245 59.3845434,14.4396854 58.0006101,17.522538 L66.2792178,17.522538 Z M62.2185998,0.0980392157 C66.1673394,8.3896643 70.0975303,16.6424625 74.0406077,24.9221409 C73.9359536,24.9283134 73.8674207,24.9358796 73.7990832,24.9358796 C72.4711867,24.9366761 71.143095,24.9316983 69.8151985,24.941853 C69.6195578,24.9432468 69.5332573,24.8733584 69.4571097,24.6991353 C68.965665,23.5733555 68.4589908,22.4541464 67.9673508,21.3283666 C67.8906175,21.1525506 67.7992404,21.0844543 67.6057475,21.0848525 C63.9471496,21.0908259 60.2883565,21.0908259 56.6295634,21.0846534 C56.4454424,21.0844543 56.3579704,21.1483693 56.2855325,21.3134332 C55.7847158,22.455142 55.2780416,23.5942623 54.7635574,24.7295995 C54.7239216,24.8166115 54.6100908,24.9269196 54.5300382,24.9275169 C53.1753924,24.9398619 51.8205514,24.9362778 50.4217791,24.9362778 C54.3562655,16.652219 58.2780606,8.39484121 62.2185998,0.0980392157 Z" id="Fill-5"></path>
                                <path d="M98.2141941,0.397562648 C97.7184539,1.38953912 97.2445817,2.33850738 96.7703191,3.28727652 C94.4271216,7.97318063 92.0827527,12.6582883 89.7454128,17.3471791 C89.663603,17.5112474 89.615962,17.7119524 89.615181,17.895932 C89.6061994,19.9959673 89.6095187,22.0962017 89.6095187,24.1960379 L89.6095187,24.576342 L85.6736656,24.576342 L85.6736656,24.2245109 C85.6736656,22.1059582 85.6763991,19.9876046 85.6685891,17.869251 C85.6680033,17.7025942 85.624853,17.5208048 85.5508532,17.3724663 C82.7753719,11.8172388 79.9940331,6.26499794 77.2134753,0.712358875 C77.1691535,0.623554879 77.1275652,0.532958875 77.0705521,0.413690728 C77.1759872,0.407518253 77.2601401,0.398159984 77.3440976,0.398159984 C78.5997516,0.397164424 79.8552102,0.402540451 81.1104736,0.392186622 C81.3104098,0.390593725 81.4097921,0.452716699 81.500193,0.634306932 C83.5397764,4.71510937 85.5859982,8.79192957 87.6312439,12.8697453 C87.6753704,12.9577529 87.7222305,13.0447649 87.7802198,13.1562676 C88.4292314,11.8431234 89.066528,10.5542708 89.703434,9.26501992 C91.1236838,6.39063768 92.5453004,3.51705188 93.959107,0.639483847 C94.0483363,0.457694502 94.1455709,0.390792837 94.3466786,0.392385734 C95.619905,0.402341339 96.8931314,0.397562648 98.2141941,0.397562648" id="Fill-7"></path>
                                <path d="M13.0046382,0.076976737 L13.0046382,3.59309727 C12.8853404,3.59309727 10.8734825,3.58811947 10.7610184,3.59389372 C9.96947419,3.63431347 9.16738645,3.60962357 8.38872873,3.73546242 C7.33242526,3.90590238 6.55279129,4.48511947 6.32473908,5.63399627 C6.22106123,6.15686464 6.25620627,6.67833922 6.38038538,7.19443778 C6.60902334,8.14539716 7.07684277,8.987044 7.55364371,9.82172191 C8.23916709,11.0221687 8.96022601,12.202107 9.62466237,13.4143015 C10.1762441,14.4202158 10.6126283,15.4828771 10.8141265,16.6271743 C11.1261363,18.3996702 10.9189758,20.0821674 9.8773161,21.5826762 C8.9551495,22.9111521 7.64131104,23.6580216 6.11230688,23.9879503 C5.31451465,24.1599832 4.48821589,24.2113541 3.67148438,24.2702913 C3.08007159,24.3131004 0.612109314,24.278654 2.57571742e-14,24.278654 L2.57571742e-14,20.8067363 C0.115588107,20.8067363 2.10089194,20.8105195 2.21452754,20.806139 C3.06152282,20.7746793 3.92257611,20.8298333 4.75219413,20.6902558 C6.42041167,20.4095077 7.18286362,19.2273792 6.93528639,17.5154134 C6.77947675,16.4390134 6.3528551,15.4687401 5.83348963,14.5388866 C5.2041983,13.411713 4.53136618,12.3098267 3.89524109,11.1862371 C3.28078877,10.1010762 2.72178751,8.98624755 2.45234226,7.75035876 C1.71839683,4.38516519 3.45299943,1.42078428 6.70723418,0.467833785 C7.8107882,0.14467485 8.94011524,0.0494992675 10.0831098,0.0757820644 C10.4152303,0.0835474362 12.6467447,0.076976737 13.0046382,0.076976737" id="Fill-9"></path>
                            </g>
                        </g>
                    </g>
                </g>
            </g>
        </g>
    </g>
</svg>